<svg xmlns="http://www.w3.org/2000/svg" xmlns:xlink="http://www.w3.org/1999/xlink" version="1.1" width="20" height="20" viewBox="0 0 256 256" xml:space="preserve">

<defs>
</defs>
<g style="stroke: none; stroke-width: 0; stroke-dasharray: none; stroke-linecap: butt; stroke-linejoin: miter; stroke-miterlimit: 10; fill: none; fill-rule: nonzero; opacity: 1;" transform="translate(1.4065934065934016 1.4065934065934016) scale(2.81 2.81)" >
	<path d="M 45 90 c -0.219 0 -0.437 -0.072 -0.616 -0.212 l -22.95 -17.936 c -0.243 -0.189 -0.384 -0.48 -0.384 -0.788 s 0.142 -0.599 0.384 -0.788 l 22.95 -17.937 c 0.3 -0.235 0.71 -0.279 1.054 -0.11 C 45.782 52.396 46 52.745 46 53.128 v 7.953 c 15.05 -0.438 28.121 -10.739 31.994 -25.353 c 0.116 -0.438 0.514 -0.744 0.967 -0.744 s 0.851 0.305 0.967 0.744 c 0.802 3.027 1.209 6.149 1.209 9.282 c 0 19.592 -15.672 35.592 -35.137 36.123 V 89 c 0 0.383 -0.218 0.731 -0.562 0.898 C 45.299 89.967 45.149 90 45 90 z M 23.674 71.064 L 44 86.949 v -6.803 c 0 -0.553 0.448 -1 1 -1 c 18.823 0 34.137 -15.313 34.137 -34.137 c 0 -1.716 -0.129 -3.429 -0.386 -5.123 C 73.46 53.725 60.083 63.096 45 63.096 c -0.552 0 -1 -0.447 -1 -1 v -6.917 L 23.674 71.064 z" style="stroke: none; stroke-width: 1; stroke-dasharray: none; stroke-linecap: butt; stroke-linejoin: miter; stroke-miterlimit: 10; fill: rgb(256,256,256); fill-rule: nonzero; opacity: 1;" transform=" matrix(1 0 0 1 0 0) " stroke-linecap="round" />
	<path d="M 11.039 55.016 c -0.454 0 -0.851 -0.306 -0.967 -0.744 c -0.802 -3.025 -1.208 -6.147 -1.208 -9.281 C 8.863 25.399 24.535 9.399 44 8.867 V 1 c 0 -0.382 0.218 -0.731 0.562 -0.899 c 0.343 -0.167 0.752 -0.125 1.054 0.111 l 22.951 17.936 c 0.242 0.189 0.384 0.48 0.384 0.788 s -0.142 0.599 -0.384 0.788 L 45.616 37.66 c -0.302 0.235 -0.711 0.277 -1.054 0.111 C 44.218 37.603 44 37.254 44 36.872 v -7.953 c -15.05 0.438 -28.121 10.74 -31.995 25.353 C 11.889 54.71 11.492 55.016 11.039 55.016 z M 46 3.051 v 6.803 c 0 0.552 -0.448 1 -1 1 c -18.823 0 -34.137 15.313 -34.137 34.137 c 0 1.716 0.129 3.429 0.385 5.122 C 16.54 36.274 29.917 26.904 45 26.904 c 0.552 0 1 0.448 1 1 v 6.917 l 20.326 -15.885 L 46 3.051 z" style="stroke: none; stroke-width: 1; stroke-dasharray: none; stroke-linecap: butt; stroke-linejoin: miter; stroke-miterlimit: 10; fill: rgb(256,256,256); fill-rule: nonzero; opacity: 1;" transform=" matrix(1 0 0 1 0 0) " stroke-linecap="round" />
</g>
</svg>